<?xml version="1.0" standalone="no"?>
<!DOCTYPE svg PUBLIC "-//W3C//DTD SVG 20010904//EN"
 "http://www.w3.org/TR/2001/REC-SVG-20010904/DTD/svg10.dtd">
<svg version="1.0" xmlns="http://www.w3.org/2000/svg"
 width="100.000000pt" height="100.000000pt" viewBox="0 0 100.000000 100.000000"
 preserveAspectRatio="xMidYMid meet">
<metadata>
Created by potrace 1.14, written by Peter Selinger 2001-2017
</metadata>
<g transform="translate(0.000000,100.000000) scale(0.100000,-0.100000)"
fill="#000000" stroke="none">
<path d="M403 915 c-134 -37 -234 -120 -290 -242 -78 -169 -43 -362 89 -495
48 -48 146 -111 160 -102 4 3 8 1 8 -4 0 -5 6 -9 13 -10 6 0 23 -3 37 -7 14
-3 44 -6 68 -6 26 0 42 -4 42 -12 0 -7 4 -6 10 3 9 13 11 13 20 0 8 -13 10
-12 10 4 0 16 2 17 17 5 13 -11 15 -11 9 -1 -6 11 -1 12 23 9 21 -4 29 -2 24
5 -4 7 2 9 15 6 12 -4 25 -1 29 4 4 7 1 8 -7 3 -9 -5 -11 -4 -6 4 6 9 11 9 24
-1 10 -8 13 -9 9 -1 -10 17 13 28 25 12 8 -11 9 -10 4 3 -3 11 2 21 14 28 24
13 33 13 25 0 -3 -6 1 -7 10 -3 13 4 14 8 4 13 -15 10 39 62 57 55 7 -2 10 4
7 14 -2 10 4 24 13 32 16 12 17 12 9 -1 -8 -13 -7 -13 11 0 29 22 30 24 12 17
-22 -8 -24 11 -3 19 8 4 13 10 10 14 -3 5 -1 11 5 15 6 4 8 11 5 16 -4 5 2 9
12 10 10 0 13 3 6 6 -10 3 -10 12 1 38 8 18 12 36 8 39 -3 3 -1 6 4 6 6 0 8
16 6 36 -4 29 -2 35 9 29 11 -6 12 -5 2 6 -7 7 -13 17 -13 22 0 4 6 5 13 1 8
-6 8 -3 -1 9 -8 9 -11 21 -7 27 3 5 0 10 -7 10 -9 0 -9 3 2 10 12 8 12 10 1
10 -8 0 -11 7 -8 20 3 11 1 20 -4 20 -5 0 -9 8 -9 18 0 29 -57 118 -109 171
-106 107 -277 155 -418 116z"/>
</g>
</svg>
